<?xml version="1.0" encoding="UTF-8"?><svg id="a" xmlns="http://www.w3.org/2000/svg" viewBox="0 0 1080 1080"><defs><style>.b{fill:#66cee1;}.c{fill:#fff;}.d{fill:#31095e;}</style></defs><rect class="d" x=".23" y="-.05" width="1079.77" height="1079.77" rx="200" ry="200"/><g><g><path class="b" d="M588.77,565.52c-1.71-9.17-2.45-18.32-2.34-27.36l-193.54,17.94,15.8,84.88,88.87-21.25,.25,84.1-220.59,68.04,56.53-428.93,127.9,22.38,47.88,100.65,44.95-16.97-63.73-205.25H185.81V870.19l440.62-50.36-74.71-213.04,46.35-11.08c-4.15-9.54-7.34-19.61-9.31-30.19Z"/><path class="c" d="M634.62,430.98c-29.75,28.63-47.7,66.84-48.19,107.18-.11,9.04,.63,18.19,2.34,27.36,1.97,10.58,5.16,20.65,9.31,30.19,15.49,35.62,45.13,63.39,81.88,78.84l-45.34-243.58Z"/></g><path class="c" d="M972.84,491.34c-17.38-93.37-114.83-153.55-217.66-134.41-40.73,7.58-76.04,26.58-102.94,52.43l55.37,275.75c33.36,13.03,71.54,17.21,110.52,9.95,102.83-19.14,172.1-110.35,154.72-203.72Zm-168.37,83.33c-32.12,0-58.15-26.03-58.15-58.15s26.03-58.15,58.15-58.15,58.15,26.03,58.15,58.15-26.03,58.15-58.15,58.15Z"/></g></svg>